<?xml version="1.0" standalone="no"?>
<!DOCTYPE svg PUBLIC "-//W3C//DTD SVG 20010904//EN"
 "http://www.w3.org/TR/2001/REC-SVG-20010904/DTD/svg10.dtd">
<svg version="1.0" xmlns="http://www.w3.org/2000/svg"
 width="700.000000pt" height="700.000000pt" viewBox="0 0 700.000000 700.000000"
 preserveAspectRatio="xMidYMid meet">
<metadata>
Created by potrace 1.14, written by Peter Selinger 2001-2017
</metadata>
<g transform="translate(0.000000,700.000000) scale(0.100000,-0.100000)"
fill="#000000" stroke="none">
<path d="M2830 6965 c0 -33 -2 -35 -52 -49 -53 -15 -167 -41 -312 -72 -47 -9
-110 -32 -155 -56 -41 -22 -110 -48 -153 -59 -94 -24 -161 -52 -199 -83 -16
-14 -54 -34 -84 -45 -83 -31 -132 -58 -174 -96 -21 -19 -65 -47 -97 -61 -33
-14 -80 -45 -105 -69 -25 -24 -64 -52 -86 -63 -22 -11 -68 -47 -104 -79 -35
-32 -80 -69 -99 -83 -66 -46 -317 -298 -360 -360 -13 -19 -49 -64 -80 -100
-31 -36 -71 -90 -88 -120 -17 -30 -47 -67 -66 -82 -24 -19 -42 -47 -56 -87
-12 -32 -40 -80 -62 -107 -40 -48 -88 -136 -88 -162 0 -17 -47 -109 -60 -117
-20 -12 -50 -84 -74 -178 -14 -52 -43 -130 -65 -174 -29 -55 -46 -105 -57
-168 -30 -171 -45 -240 -65 -317 -21 -78 -21 -78 -55 -78 l-34 0 0 -535 0
-535 35 0 c19 0 35 -1 35 -3 0 -1 9 -34 20 -72 11 -39 34 -146 50 -240 26
-146 36 -181 70 -247 22 -43 51 -117 64 -165 30 -111 46 -148 84 -196 17 -21
38 -62 48 -90 24 -73 58 -139 84 -162 13 -11 40 -56 61 -100 20 -44 53 -96 73
-115 20 -19 50 -59 67 -89 17 -29 50 -74 73 -100 24 -25 62 -72 85 -103 23
-32 53 -66 67 -75 14 -9 44 -40 65 -69 21 -29 58 -66 82 -83 24 -16 54 -44 66
-63 13 -18 44 -47 70 -65 25 -18 77 -59 114 -93 38 -33 86 -69 107 -80 22 -11
62 -40 89 -64 28 -25 71 -54 96 -65 26 -11 67 -38 91 -60 25 -22 83 -55 131
-75 48 -20 113 -54 146 -76 33 -22 92 -49 131 -61 39 -11 92 -28 119 -39 l47
-18 28 36 c24 32 27 45 30 131 3 87 1 99 -20 131 -33 48 -135 113 -241 152
-63 24 -104 47 -144 81 -30 26 -67 54 -83 62 -16 8 -41 32 -57 52 -15 21 -50
61 -78 88 -32 32 -56 66 -65 94 -8 24 -27 62 -43 84 -96 132 -109 227 -106
747 2 394 2 406 -18 445 -27 50 -93 115 -158 152 -33 20 -58 44 -78 78 -16 27
-46 68 -67 92 -58 67 -83 155 -82 300 1 142 25 234 76 291 18 20 50 63 70 95
22 34 54 68 79 83 66 41 87 64 124 138 34 67 35 72 28 145 -10 101 -7 159 16
331 28 212 46 285 94 385 23 50 53 122 65 160 25 75 39 103 81 151 14 18 42
66 62 107 22 47 48 85 67 99 18 13 44 43 58 68 15 25 69 87 122 137 52 51 118
115 145 142 28 27 78 65 112 85 35 20 67 45 73 56 6 10 54 40 108 65 53 26
120 62 147 80 28 19 100 49 160 69 61 19 137 46 170 60 33 13 112 35 175 48
103 20 143 23 380 22 236 0 278 -2 380 -23 63 -12 142 -34 175 -47 33 -14 110
-41 170 -60 61 -20 132 -50 160 -69 28 -19 88 -52 135 -73 47 -22 99 -53 115
-70 17 -16 55 -45 85 -62 30 -18 78 -54 105 -81 196 -191 241 -238 267 -280
16 -27 42 -58 58 -69 16 -12 43 -50 60 -88 18 -37 49 -89 70 -117 48 -64 56
-79 86 -173 14 -42 38 -101 55 -129 65 -116 111 -378 114 -648 l2 -180 31 -56
c35 -62 51 -78 119 -123 26 -17 57 -49 70 -71 12 -22 40 -61 62 -87 52 -60 80
-131 89 -229 16 -161 -17 -315 -83 -388 -18 -20 -46 -58 -62 -86 -21 -36 -45
-58 -85 -82 -64 -37 -108 -79 -146 -136 l-26 -39 2 -407 c3 -524 -9 -616 -101
-749 -20 -30 -42 -73 -49 -95 -8 -27 -31 -60 -63 -92 -28 -27 -63 -67 -78 -88
-16 -20 -41 -44 -57 -52 -16 -8 -53 -36 -84 -62 -37 -33 -79 -57 -133 -77 -43
-15 -112 -48 -154 -73 -97 -56 -117 -89 -120 -194 -2 -81 7 -107 43 -131 21
-14 30 -13 105 11 45 15 92 36 105 47 28 26 59 43 168 92 47 21 91 46 99 56 8
10 47 34 85 53 39 20 91 54 116 77 25 23 77 61 115 84 39 23 83 57 98 77 15
19 42 42 60 51 18 9 60 44 94 77 34 34 77 77 95 95 113 111 168 171 182 198 8
18 33 46 55 64 22 17 54 57 71 88 17 32 51 80 76 107 25 28 59 77 75 110 16
33 47 78 69 100 28 28 45 59 59 106 12 36 32 81 46 100 13 19 36 50 49 69 14
19 34 71 46 115 22 82 42 129 86 203 18 29 36 93 59 205 18 89 47 199 64 244
78 210 100 819 45 1243 -10 75 -28 152 -54 226 -21 62 -46 156 -55 210 -21
128 -39 185 -85 262 -23 38 -46 96 -60 150 -18 73 -29 98 -66 143 -30 37 -52
79 -70 133 -20 59 -38 92 -69 126 -23 25 -54 69 -69 99 -14 29 -46 76 -71 103
-24 27 -59 75 -77 106 -17 31 -51 74 -75 96 -24 21 -53 56 -63 77 -11 21 -40
52 -64 69 -25 16 -55 48 -67 70 -13 23 -44 54 -71 71 -26 17 -57 46 -68 64
-12 19 -47 50 -78 69 -31 19 -67 48 -79 64 -12 17 -50 47 -85 68 -35 20 -84
57 -109 80 -26 23 -77 58 -115 77 -38 20 -84 48 -103 64 -18 15 -74 45 -124
66 -50 21 -105 48 -122 61 -48 37 -85 53 -184 81 -51 14 -127 44 -169 66 -60
31 -108 46 -222 69 -80 17 -179 38 -220 48 l-75 18 -3 37 -3 37 -615 0 -614 0
0 -35z"/>
<path d="M3360 5479 c-146 -9 -263 -30 -317 -57 -21 -11 -87 -37 -148 -58 -65
-23 -135 -56 -172 -81 -34 -23 -90 -57 -125 -74 -35 -17 -77 -47 -95 -65 -17
-19 -58 -50 -92 -69 -33 -19 -63 -44 -66 -56 -4 -11 -4 -48 0 -81 9 -75 26
-93 127 -134 40 -16 92 -43 115 -61 55 -42 82 -55 183 -88 47 -15 106 -39 133
-52 108 -54 340 -87 607 -86 237 0 502 37 565 77 11 8 80 35 153 61 81 29 148
60 174 81 24 18 77 47 118 64 108 47 117 54 129 111 22 102 11 124 -92 183
-26 15 -54 38 -63 50 -8 13 -47 41 -87 62 -40 21 -100 57 -135 80 -34 24 -79
48 -100 53 -20 6 -82 29 -137 51 -131 54 -180 67 -295 79 -144 15 -242 18
-380 10z"/>
<path d="M2049 4512 c-38 -19 -59 -38 -72 -63 -38 -78 -97 -428 -97 -580 0
-91 13 -124 62 -150 14 -8 476 -11 1559 -11 l1540 0 34 26 c23 18 36 38 41 63
15 81 -17 352 -68 568 -23 101 -47 131 -123 161 -56 21 -87 10 -148 -52 -27
-27 -79 -61 -138 -90 -52 -25 -117 -60 -144 -77 -28 -18 -84 -42 -125 -55 -41
-13 -111 -38 -155 -57 -169 -69 -408 -105 -715 -105 -297 0 -555 37 -699 99
-36 16 -105 41 -154 56 -48 15 -113 43 -145 63 -63 39 -80 47 -167 88 -33 15
-82 49 -110 74 -53 50 -84 70 -108 70 -8 0 -39 -12 -68 -28z"/>
<path d="M1650 3263 c-62 -27 -92 -55 -117 -110 -29 -63 -27 -93 13 -161 20
-34 39 -50 87 -73 l62 -29 1052 0 c1020 1 1054 0 1090 -19 82 -42 85 -61 74
-465 l-7 -280 30 -52 c17 -29 38 -66 48 -82 26 -49 61 -61 143 -51 84 11 98
23 131 113 24 66 24 71 24 415 l0 347 28 26 c47 44 96 49 567 51 l440 2 55 27
c57 29 88 65 111 130 25 74 -43 180 -137 212 -43 15 -211 16 -1853 15 -1591
-1 -1810 -2 -1841 -16z"/>
<path d="M2632 2470 l-664 -5 -29 -33 -29 -32 0 -333 c0 -471 15 -570 97 -661
21 -23 52 -63 70 -89 32 -46 46 -55 232 -151 35 -18 82 -32 126 -37 91 -11
2038 -11 2132 0 61 7 90 18 199 77 111 59 133 75 159 115 16 25 46 64 66 86
83 92 99 206 96 675 l-2 328 -26 25 c-47 48 -156 58 -256 24 -93 -31 -95 -35
-94 -191 0 -143 -11 -257 -36 -353 -20 -78 -37 -110 -73 -136 -16 -12 -42 -43
-58 -68 -20 -32 -45 -55 -83 -75 -30 -16 -70 -42 -89 -57 -51 -41 -112 -60
-222 -69 -109 -9 -219 10 -279 48 -19 12 -56 33 -84 48 -54 28 -186 158 -212
207 -8 17 -23 53 -34 81 -10 28 -26 71 -35 96 -14 36 -17 81 -18 226 -1 167
-3 184 -21 204 -28 32 -94 60 -135 57 -19 -1 -333 -4 -698 -7z"/>
<path d="M2782 667 c-38 -39 -40 -69 -18 -234 14 -107 30 -145 85 -197 22 -22
31 -39 31 -63 l0 -33 595 0 595 0 0 30 c0 25 10 37 59 73 33 23 67 55 77 71
17 29 43 193 44 273 0 33 -7 50 -31 78 l-31 35 -687 0 -687 0 -32 -33z"/>
</g>
</svg>
